<svg width="25" height="25" viewBox="0 0 25 25" fill="none" xmlns="http://www.w3.org/2000/svg">
<path d="M11.1737 16.967H13.5846V11.9039L15.5134 13.8327L17.2011 12.145L12.3791 7.32305L7.55718 12.145L9.24487 13.8327L11.1737 11.9039V16.967ZM12.3791 24.1999C10.7115 24.1999 9.14441 23.8835 7.67773 23.2506C6.21104 22.6177 4.93523 21.7588 3.85029 20.6739C2.76534 19.5889 1.90643 18.3131 1.27354 16.8464C0.640661 15.3798 0.324219 13.8126 0.324219 12.145C0.324219 10.4774 0.640661 8.91028 1.27354 7.44359C1.90643 5.97691 2.76534 4.7011 3.85029 3.61615C4.93523 2.53121 6.21104 1.6723 7.67773 1.03941C9.14441 0.40653 10.7115 0.0900879 12.3791 0.0900879C14.0467 0.0900879 15.6139 0.40653 17.0806 1.03941C18.5473 1.6723 19.8231 2.53121 20.908 3.61615C21.993 4.7011 22.8519 5.97691 23.4848 7.44359C24.1176 8.91028 24.4341 10.4774 24.4341 12.145C24.4341 13.8126 24.1176 15.3798 23.4848 16.8464C22.8519 18.3131 21.993 19.5889 20.908 20.6739C19.8231 21.7588 18.5473 22.6177 17.0806 23.2506C15.6139 23.8835 14.0467 24.1999 12.3791 24.1999ZM12.3791 21.789C15.0714 21.789 17.3518 20.8547 19.2203 18.9862C21.0888 17.1177 22.0231 14.8373 22.0231 12.145C22.0231 9.45275 21.0888 7.17236 19.2203 5.30385C17.3518 3.43533 15.0714 2.50107 12.3791 2.50107C9.68688 2.50107 7.40649 3.43533 5.53798 5.30385C3.66946 7.17236 2.7352 9.45275 2.7352 12.145C2.7352 14.8373 3.66946 17.1177 5.53798 18.9862C7.40649 20.8547 9.68688 21.789 12.3791 21.789Z" fill="#46BE67"/>
</svg>
