<svg width="25" height="25" viewBox="0 0 25 25" fill="none" xmlns="http://www.w3.org/2000/svg">
<path d="M13.5842 7.61309L11.1732 7.61309L11.1732 12.6762L9.24438 10.7474L7.55669 12.4351L12.3787 17.257L17.2006 12.4351L15.5129 10.7474L13.5842 12.6762L13.5842 7.61309ZM12.3787 0.38013C14.0463 0.38013 15.6134 0.696572 17.0801 1.32946C18.5468 1.96234 19.8226 2.82125 20.9075 3.9062C21.9925 4.99114 22.8514 6.26695 23.4843 7.73364C24.1172 9.20032 24.4336 10.7675 24.4336 12.4351C24.4336 14.1027 24.1172 15.6698 23.4843 17.1365C22.8514 18.6032 21.9925 19.879 20.9075 20.9639C19.8226 22.0489 18.5468 22.9078 17.0801 23.5407C15.6134 24.1735 14.0463 24.49 12.3787 24.49C10.7111 24.49 9.14392 24.1735 7.67724 23.5407C6.21056 22.9078 4.93474 22.0489 3.8498 20.9639C2.76486 19.879 1.90595 18.6032 1.27306 17.1365C0.640178 15.6698 0.323735 14.1027 0.323735 12.4351C0.323735 10.7675 0.640178 9.20032 1.27306 7.73363C1.90595 6.26695 2.76486 4.99114 3.8498 3.90619C4.93475 2.82125 6.21056 1.96234 7.67724 1.32945C9.14393 0.696572 10.7111 0.38013 12.3787 0.38013ZM12.3787 2.79112C9.6864 2.79112 7.40601 3.72537 5.53749 5.59389C3.66898 7.4624 2.73472 9.74279 2.73472 12.4351C2.73472 15.1273 3.66898 17.4077 5.53749 19.2762C7.40601 21.1447 9.6864 22.079 12.3787 22.079C15.0709 22.079 17.3513 21.1447 19.2198 19.2762C21.0884 17.4077 22.0226 15.1273 22.0226 12.4351C22.0226 9.74279 21.0884 7.4624 19.2198 5.59389C17.3513 3.72537 15.0709 2.79112 12.3787 2.79112Z" fill="#FF380F"/>
</svg>
