<svg width="16" height="16" viewBox="0 0 16 16" fill="none" xmlns="http://www.w3.org/2000/svg">
<g clip-path="url(#clip0_4944_4158)">
<path d="M6.66667 6.66602L2.56201 10.774C2.40694 10.9289 2.29245 11.1197 2.22867 11.3293L1.34734 14.236C1.32986 14.2937 1.32834 14.355 1.34294 14.4135C1.35754 14.4719 1.38772 14.5254 1.43026 14.568C1.4728 14.6107 1.52612 14.6411 1.58453 14.6558C1.64295 14.6706 1.70428 14.6693 1.76201 14.652L4.66734 13.77C4.87632 13.7059 5.06634 13.5915 5.22067 13.4367L9.33334 9.32068" stroke="#666666" stroke-width="1.33333" stroke-linecap="round" stroke-linejoin="round"/>
<path d="M8.55273 4.78167L11.4587 1.88434C11.6332 1.70985 11.8404 1.57145 12.0683 1.47702C12.2963 1.38259 12.5406 1.33398 12.7874 1.33398C13.0342 1.33398 13.2785 1.38259 13.5065 1.47702C13.7344 1.57145 13.9416 1.70985 14.1161 1.88434C14.2905 2.05882 14.429 2.26596 14.5234 2.49393C14.6178 2.72191 14.6664 2.96625 14.6664 3.213C14.6664 3.45976 14.6178 3.7041 14.5234 3.93207C14.429 4.16005 14.2905 4.36719 14.1161 4.54167L11.2141 7.44367" stroke="#666666" stroke-width="1.33333" stroke-linecap="round" stroke-linejoin="round"/>
<path d="M10 3.33398L12.6667 6.00065" stroke="#666666" stroke-width="1.33333" stroke-linecap="round" stroke-linejoin="round"/>
<path d="M1.33301 1.33398L14.6663 14.6673" stroke="#666666" stroke-width="1.33333" stroke-linecap="round" stroke-linejoin="round"/>
</g>
<defs>
<clipPath id="clip0_4944_4158">
<rect width="16" height="16" fill="white"/>
</clipPath>
</defs>
</svg>
